<?xml version="1.0" standalone="no"?>
<!DOCTYPE svg PUBLIC "-//W3C//DTD SVG 20010904//EN"
 "http://www.w3.org/TR/2001/REC-SVG-20010904/DTD/svg10.dtd">
<svg version="1.0" xmlns="http://www.w3.org/2000/svg"
 width="780.000000pt" height="780.000000pt" viewBox="0 0 780.000000 780.000000"
 preserveAspectRatio="xMidYMid meet">
<metadata>
Created by potrace 1.11, written by Peter Selinger 2001-2013
</metadata>
<g transform="translate(0.000000,780.000000) scale(0.100000,-0.100000)"
fill="#000000" stroke="none">
<path d="M1040 7285 c-423 -77 -769 -397 -887 -821 l-28 -99 0 -2450 0 -2450
28 -99 c102 -367 373 -658 723 -777 186 -63 -13 -59 3059 -57 l2800 3 78 22
c224 64 373 150 527 303 155 156 244 312 303 532 l22 83 0 2440 0 2440 -28 99
c-105 376 -360 656 -713 782 -192 69 24 64 -3038 63 -2297 -1 -2784 -3 -2846
-14z m6087 -235 c58 -33 172 -135 205 -184 l21 -31 -29 26 c-90 79 -175 150
-218 182 -59 45 -50 48 21 7z m-1645 -1740 c301 -51 544 -166 755 -357 l42
-38 -195 -245 c-107 -135 -201 -251 -208 -258 -11 -11 -25 -6 -82 31 -208 134
-385 186 -596 174 -85 -4 -109 -10 -163 -36 -76 -38 -107 -80 -113 -157 -3
-41 0 -61 19 -93 39 -69 87 -93 544 -273 153 -60 313 -125 353 -144 169 -78
331 -215 411 -348 75 -125 111 -274 111 -457 0 -189 -36 -327 -128 -484 -63
-108 -219 -263 -330 -329 -408 -242 -947 -259 -1470 -45 -136 55 -291 152
-435 272 l-28 23 232 280 c127 153 233 280 234 282 1 2 46 -27 99 -63 260
-176 514 -255 731 -227 168 22 245 83 253 200 3 50 0 63 -26 102 -39 61 -103
97 -345 196 -434 176 -557 232 -644 290 -272 181 -413 434 -414 745 -1 171 33
305 112 440 129 223 334 381 612 474 196 65 452 83 669 45z m-3034 -1247 l2
-1213 590 0 590 0 0 -345 0 -345 -1005 0 -1005 0 0 1553 c0 855 3 1557 7 1560
4 4 189 6 412 5 l406 -3 3 -1212z m-1785 -3263 c32 -23 57 -44 57 -47 0 -10
-101 52 -147 90 -47 39 -133 132 -133 143 0 3 38 -28 83 -69 46 -41 109 -93
140 -117z"/>
</g>
</svg>
